<!-- Simple SVG icon for TargetSweeper 360 -->
<svg width="512" height="512" viewBox="0 0 512 512" xmlns="http://www.w3.org/2000/svg">
    <!-- Background circle -->
    <circle cx="256" cy="256" r="240" fill="#2d9a2d" stroke="#ffffff" stroke-width="8" />

    <!-- Crosshairs -->
    <circle cx="256" cy="256" r="160" fill="none" stroke="#ffffff" stroke-width="4" />
    <circle cx="256" cy="256" r="100" fill="none" stroke="#ffffff" stroke-width="3" />
    <circle cx="256" cy="256" r="40" fill="none" stroke="#ffffff" stroke-width="2" />

    <!-- Cross lines -->
    <line x1="256" y1="40" x2="256" y2="472" stroke="#ffffff" stroke-width="3" />
    <line x1="40" y1="256" x2="472" y2="256" stroke="#ffffff" stroke-width="3" />

    <!-- Center target -->
    <circle cx="256" cy="256" r="12" fill="#ffffff" />
    <circle cx="256" cy="256" r="8" fill="#2d9a2d" />

    <!-- Corner markers -->
    <path d="M 60 60 L 100 60 L 100 80 L 80 80 L 80 100 L 60 100 Z" fill="#ffffff" />
    <path d="M 452 60 L 452 100 L 432 100 L 432 80 L 412 80 L 412 60 Z" fill="#ffffff" />
    <path d="M 60 452 L 80 452 L 80 432 L 100 432 L 100 412 L 60 412 Z" fill="#ffffff" />
    <path d="M 432 432 L 432 452 L 412 452 L 412 432 L 432 432 L 452 432 L 452 412 L 432 412 Z"
        fill="#ffffff" />
</svg>